STARTFONT 2.1
COMMENT 
COMMENT 10x20rkb.bdf, a part of Kappa 20dot Fonts Version 0.395 (2003/07/07).
COMMENT 
COMMENT Katakana are designed by KANOU Hiroki (kanou@khdd.net).
COMMENT Alphanumerics are designed by NAGAO Sadakazu (snagao@tkb.att.ne.jp).
COMMENT For more information, see http://khdd.net/20dot.fonts/
COMMENT 
COMMENT THIS FONT IS PUBLIC DOMAIN: YOU CAN USE, COPY, MODIFY, EVEN COPYRIGHT
COMMENT AS YOURS AND SELL THIS FONT, BUT YOU CAN'T PROHIBIT ANYONE FROM FREE
COMMENT CIRCULATION OF THIS FONT AND ITS DESCENDANTS INDEPENDENT OF YOUR
COMMENT VARIATIONS AND/OR DERIVATIONS. SEE `README' (IN JAPANESE) FOR DETAILS.
COMMENT 
FONT -Kappa-Fixed-Bold-R-Normal--20-190-75-75-C-100-JISX0201.1976-0
SIZE 20 75 75
FONTBOUNDINGBOX 10 20 0 -3
STARTPROPERTIES 19
FONTNAME_REGISTRY ""
FOUNDRY "Kappa"
FAMILY_NAME "Fixed"
WEIGHT_NAME "Bold"
SLANT "R"
SETWIDTH_NAME "Normal"
ADD_STYLE_NAME ""
PIXEL_SIZE 20
POINT_SIZE 190
RESOLUTION_X 75
RESOLUTION_Y 75
SPACING "C"
AVERAGE_WIDTH 100
CHARSET_REGISTRY "JISX0201.1976"
CHARSET_ENCODING "1"
DEFAULT_CHAR 32
FONT_DESCENT 3
FONT_ASCENT 17
COPYRIGHT "public domain"
ENDPROPERTIES
CHARS 159
STARTCHAR space
ENCODING 32
SWIDTH 505 0
DWIDTH 10 0
BBX 10 20 0 -3
BITMAP
0000
0000
0000
0000
0000
0000
0000
0000
0000
0000
0000
0000
0000
0000
0000
0000
0000
0000
0000
0000
ENDCHAR
STARTCHAR !
ENCODING 33
SWIDTH 505 0
DWIDTH 10 0
BBX 10 20 0 -3
BITMAP
0000
0000
0800
1c00
1c00
1c00
1c00
1c00
1c00
0800
0800
0800
0000
0000
0800
1c00
0800
0000
0000
0000
ENDCHAR
STARTCHAR "
ENCODING 34
SWIDTH 505 0
DWIDTH 10 0
BBX 10 20 0 -3
BITMAP
0000
0000
7700
7700
3300
2200
4400
0000
0000
0000
0000
0000
0000
0000
0000
0000
0000
0000
0000
0000
ENDCHAR
STARTCHAR #
ENCODING 35
SWIDTH 505 0
DWIDTH 10 0
BBX 10 20 0 -3
BITMAP
0000
0000
1100
1100
1100
1100
7f80
7f80
2200
2200
2200
2200
ff00
ff00
4400
4400
4400
4400
0000
0000
ENDCHAR
STARTCHAR $
ENCODING 36
SWIDTH 505 0
DWIDTH 10 0
BBX 10 20 0 -3
BITMAP
0000
0800
0800
3e00
6b00
cb80
c900
e800
7800
3e00
0f00
0b80
4980
e980
6b00
3e00
0800
0800
0000
0000
ENDCHAR
STARTCHAR %
ENCODING 37
SWIDTH 505 0
DWIDTH 10 0
BBX 10 20 0 -3
BITMAP
0000
0000
3080
6880
4900
4900
4a00
5a00
3400
0400
0800
0b00
1680
1480
2480
2480
4580
4300
0000
0000
ENDCHAR
STARTCHAR &
ENCODING 38
SWIDTH 505 0
DWIDTH 10 0
BBX 10 20 0 -3
BITMAP
0000
0000
0000
3c00
6600
6600
6400
2c00
3800
31c0
7880
d880
cd00
cd00
c600
e740
7980
0000
0000
0000
ENDCHAR
STARTCHAR '
ENCODING 39
SWIDTH 505 0
DWIDTH 10 0
BBX 10 20 0 -3
BITMAP
0000
0000
3800
3800
1800
1800
1000
2000
0000
0000
0000
0000
0000
0000
0000
0000
0000
0000
0000
0000
ENDCHAR
STARTCHAR (
ENCODING 40
SWIDTH 505 0
DWIDTH 10 0
BBX 10 20 0 -3
BITMAP
0000
0100
0200
0600
0400
0c00
0800
1800
1800
1800
1800
1800
1800
0800
0c00
0400
0600
0200
0100
0000
ENDCHAR
STARTCHAR )
ENCODING 41
SWIDTH 505 0
DWIDTH 10 0
BBX 10 20 0 -3
BITMAP
0000
4000
2000
3000
1000
1800
0800
0c00
0c00
0c00
0c00
0c00
0c00
0800
1800
1000
3000
2000
4000
0000
ENDCHAR
STARTCHAR *
ENCODING 42
SWIDTH 505 0
DWIDTH 10 0
BBX 10 20 0 -3
BITMAP
0000
0000
0000
0000
0000
0800
4900
6b00
3e00
0800
3e00
6b00
4900
0800
0000
0000
0000
0000
0000
0000
ENDCHAR
STARTCHAR +
ENCODING 43
SWIDTH 505 0
DWIDTH 10 0
BBX 10 20 0 -3
BITMAP
0000
0000
0000
0000
0000
0800
0800
0800
0800
ff80
0800
0800
0800
0800
0000
0000
0000
0000
0000
0000
ENDCHAR
STARTCHAR ,
ENCODING 44
SWIDTH 505 0
DWIDTH 10 0
BBX 10 20 0 -3
BITMAP
0000
0000
0000
0000
0000
0000
0000
0000
0000
0000
0000
0000
0000
0000
3800
3800
1800
1800
1000
2000
ENDCHAR
STARTCHAR -
ENCODING 45
SWIDTH 505 0
DWIDTH 10 0
BBX 10 20 0 -3
BITMAP
0000
0000
0000
0000
0000
0000
0000
0000
0000
7f80
0000
0000
0000
0000
0000
0000
0000
0000
0000
0000
ENDCHAR
STARTCHAR .
ENCODING 46
SWIDTH 505 0
DWIDTH 10 0
BBX 10 20 0 -3
BITMAP
0000
0000
0000
0000
0000
0000
0000
0000
0000
0000
0000
0000
0000
0000
3800
3800
3800
0000
0000
0000
ENDCHAR
STARTCHAR /
ENCODING 47
SWIDTH 505 0
DWIDTH 10 0
BBX 10 20 0 -3
BITMAP
0000
0080
0080
0180
0100
0300
0200
0600
0400
0c00
0800
1800
1000
3000
2000
6000
4000
c000
8000
8000
ENDCHAR
STARTCHAR 0
ENCODING 48
SWIDTH 505 0
DWIDTH 10 0
BBX 10 20 0 -3
BITMAP
0000
0000
0000
1e00
3300
2100
6180
6180
6180
6180
6180
6180
6180
6180
2100
3300
1e00
0000
0000
0000
ENDCHAR
STARTCHAR 1
ENCODING 49
SWIDTH 505 0
DWIDTH 10 0
BBX 10 20 0 -3
BITMAP
0000
0000
0000
0400
0c00
3c00
0c00
0c00
0c00
0c00
0c00
0c00
0c00
0c00
0c00
0c00
3f00
0000
0000
0000
ENDCHAR
STARTCHAR 2
ENCODING 50
SWIDTH 505 0
DWIDTH 10 0
BBX 10 20 0 -3
BITMAP
0000
0000
0000
1e00
3300
7180
2180
0180
0300
0300
0600
0c00
0800
1080
2180
7f00
7f00
0000
0000
0000
ENDCHAR
STARTCHAR 3
ENCODING 51
SWIDTH 505 0
DWIDTH 10 0
BBX 10 20 0 -3
BITMAP
0000
0000
0000
1e00
3300
6180
2180
0180
0300
0e00
0300
0180
0180
2180
7180
3300
1e00
0000
0000
0000
ENDCHAR
STARTCHAR 4
ENCODING 52
SWIDTH 505 0
DWIDTH 10 0
BBX 10 20 0 -3
BITMAP
0000
0000
0000
0700
0700
0b00
0b00
1300
1300
2300
2300
4300
7f80
0300
0300
0300
0f80
0000
0000
0000
ENDCHAR
STARTCHAR 5
ENCODING 53
SWIDTH 505 0
DWIDTH 10 0
BBX 10 20 0 -3
BITMAP
0000
0000
0000
3f80
3f80
2000
2000
2000
3e00
3300
0180
0180
0180
2180
7180
3300
1e00
0000
0000
0000
ENDCHAR
STARTCHAR 6
ENCODING 54
SWIDTH 505 0
DWIDTH 10 0
BBX 10 20 0 -3
BITMAP
0000
0000
0000
1e00
3300
6380
6100
6000
6e00
7300
6180
6180
6180
6180
6180
3300
1e00
0000
0000
0000
ENDCHAR
STARTCHAR 7
ENCODING 55
SWIDTH 505 0
DWIDTH 10 0
BBX 10 20 0 -3
BITMAP
0000
0000
0000
3f80
3f80
6100
4200
0200
0400
0400
0400
0c00
0c00
0c00
0c00
0c00
0c00
0000
0000
0000
ENDCHAR
STARTCHAR 8
ENCODING 56
SWIDTH 505 0
DWIDTH 10 0
BBX 10 20 0 -3
BITMAP
0000
0000
0000
1e00
3300
6180
6180
6180
3100
1e00
2300
6180
6180
6180
6180
3300
1e00
0000
0000
0000
ENDCHAR
STARTCHAR 9
ENCODING 57
SWIDTH 505 0
DWIDTH 10 0
BBX 10 20 0 -3
BITMAP
0000
0000
0000
1e00
3300
6180
6180
6180
6180
6180
3380
1d80
0180
2180
7180
3300
1e00
0000
0000
0000
ENDCHAR
STARTCHAR :
ENCODING 58
SWIDTH 505 0
DWIDTH 10 0
BBX 10 20 0 -3
BITMAP
0000
0000
0000
0000
0000
0000
1c00
1c00
1c00
0000
0000
0000
0000
0000
1c00
1c00
1c00
0000
0000
0000
ENDCHAR
STARTCHAR ;
ENCODING 59
SWIDTH 505 0
DWIDTH 10 0
BBX 10 20 0 -3
BITMAP
0000
0000
0000
0000
0000
0000
1c00
1c00
1c00
0000
0000
0000
0000
0000
1c00
1c00
0c00
0c00
0800
1000
ENDCHAR
STARTCHAR <
ENCODING 60
SWIDTH 505 0
DWIDTH 10 0
BBX 10 20 0 -3
BITMAP
0000
0000
0000
0000
0100
0300
0600
0c00
1800
3000
6000
3000
1800
0c00
0600
0300
0100
0000
0000
0000
ENDCHAR
STARTCHAR =
ENCODING 61
SWIDTH 505 0
DWIDTH 10 0
BBX 10 20 0 -3
BITMAP
0000
0000
0000
0000
0000
0000
0000
0000
7f80
0000
0000
0000
7f80
0000
0000
0000
0000
0000
0000
0000
ENDCHAR
STARTCHAR >
ENCODING 62
SWIDTH 505 0
DWIDTH 10 0
BBX 10 20 0 -3
BITMAP
0000
0000
0000
0000
4000
6000
3000
1800
0c00
0600
0300
0600
0c00
1800
3000
6000
4000
0000
0000
0000
ENDCHAR
STARTCHAR ?
ENCODING 63
SWIDTH 505 0
DWIDTH 10 0
BBX 10 20 0 -3
BITMAP
0000
0000
0000
3e00
6300
c180
e180
4180
0300
0600
0c00
0800
0800
0000
0800
1c00
0800
0000
0000
0000
ENDCHAR
STARTCHAR @
ENCODING 64
SWIDTH 505 0
DWIDTH 10 0
BBX 10 20 0 -3
BITMAP
0000
0000
1e00
3300
6100
4080
ca80
9680
b680
b680
b680
b680
b680
9b00
c000
4080
6300
3e00
0000
0000
ENDCHAR
STARTCHAR A
ENCODING 65
SWIDTH 505 0
DWIDTH 10 0
BBX 10 20 0 -3
BITMAP
0000
0000
0000
0c00
0c00
1e00
1600
1600
1600
2300
2300
2300
3f00
4180
4180
4180
e3c0
0000
0000
0000
ENDCHAR
STARTCHAR B
ENCODING 66
SWIDTH 505 0
DWIDTH 10 0
BBX 10 20 0 -3
BITMAP
0000
0000
0000
fe00
6300
6180
6180
6180
6300
7e00
6300
6180
6180
6180
6180
6300
fe00
0000
0000
0000
ENDCHAR
STARTCHAR C
ENCODING 67
SWIDTH 505 0
DWIDTH 10 0
BBX 10 20 0 -3
BITMAP
0000
0000
0000
1c80
7380
6180
e080
c080
c000
c000
c000
c000
c000
e000
6080
7100
1e00
0000
0000
0000
ENDCHAR
STARTCHAR D
ENCODING 68
SWIDTH 505 0
DWIDTH 10 0
BBX 10 20 0 -3
BITMAP
0000
0000
0000
fc00
6700
6380
6180
6180
6180
6180
6180
6180
6180
6180
6300
6700
fc00
0000
0000
0000
ENDCHAR
STARTCHAR E
ENCODING 69
SWIDTH 505 0
DWIDTH 10 0
BBX 10 20 0 -3
BITMAP
0000
0000
0000
ff80
6180
6080
6080
6200
6200
7e00
6200
6200
6000
6080
6080
6180
ff80
0000
0000
0000
ENDCHAR
STARTCHAR F
ENCODING 70
SWIDTH 505 0
DWIDTH 10 0
BBX 10 20 0 -3
BITMAP
0000
0000
0000
ff80
6180
6080
6080
6400
6400
7c00
6400
6400
6000
6000
6000
6000
f800
0000
0000
0000
ENDCHAR
STARTCHAR G
ENCODING 71
SWIDTH 505 0
DWIDTH 10 0
BBX 10 20 0 -3
BITMAP
0000
0000
0000
1e80
7380
6180
e080
c080
c000
c000
c780
c180
c180
e180
6180
7380
1c80
0000
0000
0000
ENDCHAR
STARTCHAR H
ENCODING 72
SWIDTH 505 0
DWIDTH 10 0
BBX 10 20 0 -3
BITMAP
0000
0000
0000
f3c0
6180
6180
6180
6180
6180
7f80
6180
6180
6180
6180
6180
6180
f3c0
0000
0000
0000
ENDCHAR
STARTCHAR I
ENCODING 73
SWIDTH 505 0
DWIDTH 10 0
BBX 10 20 0 -3
BITMAP
0000
0000
0000
3f00
0c00
0c00
0c00
0c00
0c00
0c00
0c00
0c00
0c00
0c00
0c00
0c00
3f00
0000
0000
0000
ENDCHAR
STARTCHAR J
ENCODING 74
SWIDTH 505 0
DWIDTH 10 0
BBX 10 20 0 -3
BITMAP
0000
0000
0000
0fc0
0300
0300
0300
0300
0300
0300
0300
0300
6300
e300
c300
6600
3c00
0000
0000
0000
ENDCHAR
STARTCHAR K
ENCODING 75
SWIDTH 505 0
DWIDTH 10 0
BBX 10 20 0 -3
BITMAP
0000
0000
0000
f3c0
6100
6200
6200
6400
6800
7c00
6c00
6600
6600
6300
6300
6180
f3c0
0000
0000
0000
ENDCHAR
STARTCHAR L
ENCODING 76
SWIDTH 505 0
DWIDTH 10 0
BBX 10 20 0 -3
BITMAP
0000
0000
0000
f800
6000
6000
6000
6000
6000
6000
6000
6000
6000
6080
6080
6180
ff80
0000
0000
0000
ENDCHAR
STARTCHAR M
ENCODING 77
SWIDTH 505 0
DWIDTH 10 0
BBX 10 20 0 -3
BITMAP
0000
0000
0000
e1c0
6180
7380
7380
7380
7780
5580
5d80
5d80
4980
4980
4980
4180
e3c0
0000
0000
0000
ENDCHAR
STARTCHAR N
ENCODING 78
SWIDTH 505 0
DWIDTH 10 0
BBX 10 20 0 -3
BITMAP
0000
0000
0000
e1c0
7080
7080
5880
5880
4c80
4c80
4680
4680
4380
4380
4180
4180
e080
0000
0000
0000
ENDCHAR
STARTCHAR O
ENCODING 79
SWIDTH 505 0
DWIDTH 10 0
BBX 10 20 0 -3
BITMAP
0000
0000
0000
3e00
6300
6300
c180
c180
c180
c180
c180
c180
c180
c180
6300
6300
3e00
0000
0000
0000
ENDCHAR
STARTCHAR P
ENCODING 80
SWIDTH 505 0
DWIDTH 10 0
BBX 10 20 0 -3
BITMAP
0000
0000
0000
fe00
6300
6180
6180
6180
6180
6300
7e00
6000
6000
6000
6000
6000
f000
0000
0000
0000
ENDCHAR
STARTCHAR Q
ENCODING 81
SWIDTH 505 0
DWIDTH 10 0
BBX 10 20 0 -3
BITMAP
0000
0000
0000
3e00
6300
6300
c180
c180
c180
c180
c180
c180
c180
dd80
6700
6700
3c40
07c0
0380
0000
ENDCHAR
STARTCHAR R
ENCODING 82
SWIDTH 505 0
DWIDTH 10 0
BBX 10 20 0 -3
BITMAP
0000
0000
0000
fe00
6300
6180
6180
6180
6300
7e00
6c00
6600
6600
6300
6300
6180
f3c0
0000
0000
0000
ENDCHAR
STARTCHAR S
ENCODING 83
SWIDTH 505 0
DWIDTH 10 0
BBX 10 20 0 -3
BITMAP
0000
0000
0000
1d00
3300
6180
6080
7000
3800
1e00
0700
0380
4180
4180
6180
7300
4e00
0000
0000
0000
ENDCHAR
STARTCHAR T
ENCODING 84
SWIDTH 505 0
DWIDTH 10 0
BBX 10 20 0 -3
BITMAP
0000
0000
0000
ffc0
ccc0
8c40
8c40
0c00
0c00
0c00
0c00
0c00
0c00
0c00
0c00
0c00
3f00
0000
0000
0000
ENDCHAR
STARTCHAR U
ENCODING 85
SWIDTH 505 0
DWIDTH 10 0
BBX 10 20 0 -3
BITMAP
0000
0000
0000
f1c0
6080
6080
6080
6080
6080
6080
6080
6080
6080
6080
6080
3100
1e00
0000
0000
0000
ENDCHAR
STARTCHAR V
ENCODING 86
SWIDTH 505 0
DWIDTH 10 0
BBX 10 20 0 -3
BITMAP
0000
0000
0000
f1c0
6080
6080
3100
3100
3100
3100
1a00
1a00
1a00
0c00
0c00
0c00
0c00
0000
0000
0000
ENDCHAR
STARTCHAR W
ENCODING 87
SWIDTH 505 0
DWIDTH 10 0
BBX 10 20 0 -3
BITMAP
0000
0000
0000
f1c0
6080
6480
6480
6480
6480
6e80
6e80
6a80
7b80
7b80
3100
3100
3100
0000
0000
0000
ENDCHAR
STARTCHAR X
ENCODING 88
SWIDTH 505 0
DWIDTH 10 0
BBX 10 20 0 -3
BITMAP
0000
0000
0000
f3c0
6180
3100
3200
1a00
1c00
0c00
0e00
1600
1300
2300
2180
6180
f3c0
0000
0000
0000
ENDCHAR
STARTCHAR Y
ENCODING 89
SWIDTH 505 0
DWIDTH 10 0
BBX 10 20 0 -3
BITMAP
0000
0000
0000
f1c0
6080
6080
3100
3100
1a00
1e00
0c00
0c00
0c00
0c00
0c00
0c00
3f00
0000
0000
0000
ENDCHAR
STARTCHAR Z
ENCODING 90
SWIDTH 505 0
DWIDTH 10 0
BBX 10 20 0 -3
BITMAP
0000
0000
0000
7f80
6300
4300
4600
0600
0c00
0c00
1800
1800
3000
3080
6080
6180
ff80
0000
0000
0000
ENDCHAR
STARTCHAR [
ENCODING 91
SWIDTH 505 0
DWIDTH 10 0
BBX 10 20 0 -3
BITMAP
0000
0000
1f00
1800
1800
1800
1800
1800
1800
1800
1800
1800
1800
1800
1800
1800
1800
1f00
0000
0000
ENDCHAR
STARTCHAR \
ENCODING 92
SWIDTH 505 0
DWIDTH 10 0
BBX 10 20 0 -3
BITMAP
0000
0000
0000
f3c0
6080
6180
3100
3300
1a00
7f80
0c00
0c00
7f80
0c00
0c00
0c00
3f00
0000
0000
0000
ENDCHAR
STARTCHAR ]
ENCODING 93
SWIDTH 505 0
DWIDTH 10 0
BBX 10 20 0 -3
BITMAP
0000
0000
3e00
0600
0600
0600
0600
0600
0600
0600
0600
0600
0600
0600
0600
0600
0600
3e00
0000
0000
ENDCHAR
STARTCHAR ^
ENCODING 94
SWIDTH 505 0
DWIDTH 10 0
BBX 10 20 0 -3
BITMAP
0000
0000
0800
1c00
3600
4100
0000
0000
0000
0000
0000
0000
0000
0000
0000
0000
0000
0000
0000
0000
ENDCHAR
STARTCHAR _
ENCODING 95
SWIDTH 505 0
DWIDTH 10 0
BBX 10 20 0 -3
BITMAP
0000
0000
0000
0000
0000
0000
0000
0000
0000
0000
0000
0000
0000
0000
0000
0000
0000
ff80
0000
0000
ENDCHAR
STARTCHAR `
ENCODING 96
SWIDTH 505 0
DWIDTH 10 0
BBX 10 20 0 -3
BITMAP
0000
0000
1800
1c00
0600
0000
0000
0000
0000
0000
0000
0000
0000
0000
0000
0000
0000
0000
0000
0000
ENDCHAR
STARTCHAR a
ENCODING 97
SWIDTH 505 0
DWIDTH 10 0
BBX 10 20 0 -3
BITMAP
0000
0000
0000
0000
0000
0000
0000
1f00
3180
6180
0180
1f80
3180
6180
6180
6380
3ec0
0000
0000
0000
ENDCHAR
STARTCHAR b
ENCODING 98
SWIDTH 505 0
DWIDTH 10 0
BBX 10 20 0 -3
BITMAP
0000
0000
0000
e000
6000
6000
6000
6e00
7300
6180
6180
6180
6180
6180
6180
7300
5e00
0000
0000
0000
ENDCHAR
STARTCHAR c
ENCODING 99
SWIDTH 505 0
DWIDTH 10 0
BBX 10 20 0 -3
BITMAP
0000
0000
0000
0000
0000
0000
0000
1e00
3100
6180
6000
6000
6000
6000
6080
3100
1e00
0000
0000
0000
ENDCHAR
STARTCHAR d
ENCODING 100
SWIDTH 505 0
DWIDTH 10 0
BBX 10 20 0 -3
BITMAP
0000
0000
0000
0380
0180
0180
0180
1d80
3380
6180
6180
6180
6180
6180
6180
3380
1dc0
0000
0000
0000
ENDCHAR
STARTCHAR e
ENCODING 101
SWIDTH 505 0
DWIDTH 10 0
BBX 10 20 0 -3
BITMAP
0000
0000
0000
0000
0000
0000
0000
1e00
3300
6180
6180
7f80
6000
6000
6080
3100
1e00
0000
0000
0000
ENDCHAR
STARTCHAR f
ENCODING 102
SWIDTH 505 0
DWIDTH 10 0
BBX 10 20 0 -3
BITMAP
0000
0000
0000
0f00
1980
1980
1800
7f00
1800
1800
1800
1800
1800
1800
1800
1800
7e00
0000
0000
0000
ENDCHAR
STARTCHAR g
ENCODING 103
SWIDTH 505 0
DWIDTH 10 0
BBX 10 20 0 -3
BITMAP
0000
0000
0000
0000
0000
0000
0080
3d80
6200
6300
6300
6300
3e00
4000
2000
5f00
c180
c180
c180
7f00
ENDCHAR
STARTCHAR h
ENCODING 104
SWIDTH 505 0
DWIDTH 10 0
BBX 10 20 0 -3
BITMAP
0000
0000
0000
e000
6000
6000
6000
6f00
7180
6180
6180
6180
6180
6180
6180
6180
f3c0
0000
0000
0000
ENDCHAR
STARTCHAR i
ENCODING 105
SWIDTH 505 0
DWIDTH 10 0
BBX 10 20 0 -3
BITMAP
0000
0000
0000
0c00
0c00
0000
0000
3c00
0c00
0c00
0c00
0c00
0c00
0c00
0c00
0c00
7f80
0000
0000
0000
ENDCHAR
STARTCHAR j
ENCODING 106
SWIDTH 505 0
DWIDTH 10 0
BBX 10 20 0 -3
BITMAP
0000
0000
0000
0180
0180
0000
0000
0f80
0180
0180
0180
0180
0180
0180
0180
0180
0180
6180
6300
3e00
ENDCHAR
STARTCHAR k
ENCODING 107
SWIDTH 505 0
DWIDTH 10 0
BBX 10 20 0 -3
BITMAP
0000
0000
0000
e000
6000
6000
6000
6780
6200
6400
6800
7800
6c00
6600
6600
6300
f780
0000
0000
0000
ENDCHAR
STARTCHAR l
ENCODING 108
SWIDTH 505 0
DWIDTH 10 0
BBX 10 20 0 -3
BITMAP
0000
0000
0000
3c00
0c00
0c00
0c00
0c00
0c00
0c00
0c00
0c00
0c00
0c00
0c00
0c00
7f80
0000
0000
0000
ENDCHAR
STARTCHAR m
ENCODING 109
SWIDTH 505 0
DWIDTH 10 0
BBX 10 20 0 -3
BITMAP
0000
0000
0000
0000
0000
0000
0000
db00
6d80
6d80
6d80
6d80
6d80
6d80
6d80
6d80
edc0
0000
0000
0000
ENDCHAR
STARTCHAR n
ENCODING 110
SWIDTH 505 0
DWIDTH 10 0
BBX 10 20 0 -3
BITMAP
0000
0000
0000
0000
0000
0000
0000
ef00
7180
6180
6180
6180
6180
6180
6180
6180
f3c0
0000
0000
0000
ENDCHAR
STARTCHAR o
ENCODING 111
SWIDTH 505 0
DWIDTH 10 0
BBX 10 20 0 -3
BITMAP
0000
0000
0000
0000
0000
0000
0000
1e00
3300
6180
6180
6180
6180
6180
6180
3300
1e00
0000
0000
0000
ENDCHAR
STARTCHAR p
ENCODING 112
SWIDTH 505 0
DWIDTH 10 0
BBX 10 20 0 -3
BITMAP
0000
0000
0000
0000
0000
0000
0000
ee00
7300
6180
6180
6180
6180
6180
7300
6e00
6000
6000
6000
f000
ENDCHAR
STARTCHAR q
ENCODING 113
SWIDTH 505 0
DWIDTH 10 0
BBX 10 20 0 -3
BITMAP
0000
0000
0000
0000
0000
0000
0000
3d00
6700
c300
c300
c300
c300
c300
6700
3b00
0300
0300
0300
0780
ENDCHAR
STARTCHAR r
ENCODING 114
SWIDTH 505 0
DWIDTH 10 0
BBX 10 20 0 -3
BITMAP
0000
0000
0000
0000
0000
0000
0000
7700
3980
3180
3000
3000
3000
3000
3000
3000
7c00
0000
0000
0000
ENDCHAR
STARTCHAR s
ENCODING 115
SWIDTH 505 0
DWIDTH 10 0
BBX 10 20 0 -3
BITMAP
0000
0000
0000
0000
0000
0000
0000
3e80
6380
6180
7000
3c00
0f00
4380
6180
7180
5f00
0000
0000
0000
ENDCHAR
STARTCHAR t
ENCODING 116
SWIDTH 505 0
DWIDTH 10 0
BBX 10 20 0 -3
BITMAP
0000
0000
0000
0800
0800
1800
1800
7f00
1800
1800
1800
1800
1800
1800
1880
1c80
0f00
0000
0000
0000
ENDCHAR
STARTCHAR u
ENCODING 117
SWIDTH 505 0
DWIDTH 10 0
BBX 10 20 0 -3
BITMAP
0000
0000
0000
0000
0000
0000
0000
e380
6180
6180
6180
6180
6180
6180
6180
6380
3dc0
0000
0000
0000
ENDCHAR
STARTCHAR v
ENCODING 118
SWIDTH 505 0
DWIDTH 10 0
BBX 10 20 0 -3
BITMAP
0000
0000
0000
0000
0000
0000
0000
f3c0
6080
6080
3100
3100
3100
1a00
1a00
0c00
0c00
0000
0000
0000
ENDCHAR
STARTCHAR w
ENCODING 119
SWIDTH 505 0
DWIDTH 10 0
BBX 10 20 0 -3
BITMAP
0000
0000
0000
0000
0000
0000
0000
f3c0
6080
6480
6480
6480
6e80
6a80
7b80
3100
3100
0000
0000
0000
ENDCHAR
STARTCHAR x
ENCODING 120
SWIDTH 505 0
DWIDTH 10 0
BBX 10 20 0 -3
BITMAP
0000
0000
0000
0000
0000
0000
0000
f780
6300
3200
3400
1800
0c00
1600
2600
6300
f780
0000
0000
0000
ENDCHAR
STARTCHAR y
ENCODING 121
SWIDTH 505 0
DWIDTH 10 0
BBX 10 20 0 -3
BITMAP
0000
0000
0000
0000
0000
0000
0000
f380
6100
6100
3100
3200
1a00
1a00
0c00
0c00
0400
c800
c800
7000
ENDCHAR
STARTCHAR z
ENCODING 122
SWIDTH 505 0
DWIDTH 10 0
BBX 10 20 0 -3
BITMAP
0000
0000
0000
0000
0000
0000
0000
7f80
6300
4600
0600
0c00
0c00
1800
3080
3180
7f80
0000
0000
0000
ENDCHAR
STARTCHAR {
ENCODING 123
SWIDTH 505 0
DWIDTH 10 0
BBX 10 20 0 -3
BITMAP
0600
0c00
0c00
0c00
0c00
0c00
0c00
0800
0800
3000
0800
0800
0c00
0c00
0c00
0c00
0c00
0c00
0600
0000
ENDCHAR
STARTCHAR bar
ENCODING 124
SWIDTH 505 0
DWIDTH 10 0
BBX 10 20 0 -3
BITMAP
0c00
0c00
0c00
0c00
0c00
0c00
0c00
0c00
0c00
0c00
0c00
0c00
0c00
0c00
0c00
0c00
0c00
0c00
0c00
0c00
ENDCHAR
STARTCHAR }
ENCODING 125
SWIDTH 505 0
DWIDTH 10 0
BBX 10 20 0 -3
BITMAP
1800
0c00
0c00
0c00
0c00
0c00
0c00
0400
0400
0300
0400
0400
0c00
0c00
0c00
0c00
0c00
0c00
1800
0000
ENDCHAR
STARTCHAR ~
ENCODING 126
SWIDTH 505 0
DWIDTH 10 0
BBX 10 20 0 -3
BITMAP
ff80
ff80
0000
0000
0000
0000
0000
0000
0000
0000
0000
0000
0000
0000
0000
0000
0000
0000
0000
0000
ENDCHAR
STARTCHAR C240
ENCODING 160
SWIDTH 505 0
DWIDTH 10 0
BBX 10 20 0 -3
BITMAP
0000
0000
0000
0000
0000
0000
0000
0000
0000
0000
0000
0000
0000
0000
0000
0000
0000
0000
0000
0000
ENDCHAR
STARTCHAR kuten
ENCODING 161
SWIDTH 505 0
DWIDTH 10 0
BBX 10 20 0 -3
BITMAP
0000
0000
0000
0000
0000
0000
0000
0000
0000
0000
0000
0000
0000
3800
6c00
4400
6c00
3800
0000
0000
ENDCHAR
STARTCHAR KagiOpen
ENCODING 162
SWIDTH 505 0
DWIDTH 10 0
BBX 10 20 0 -3
BITMAP
0000
1f80
1f80
1800
1800
1800
1800
1800
1800
1800
1800
1800
1800
1800
0000
0000
0000
0000
0000
0000
ENDCHAR
STARTCHAR KagiClose
ENCODING 163
SWIDTH 505 0
DWIDTH 10 0
BBX 10 20 0 -3
BITMAP
0000
0000
0000
0000
0000
0600
0600
0600
0600
0600
0600
0600
0600
0600
0600
0600
7e00
7e00
0000
0000
ENDCHAR
STARTCHAR kuten
ENCODING 164
SWIDTH 505 0
DWIDTH 10 0
BBX 10 20 0 -3
BITMAP
0000
0000
0000
0000
0000
0000
0000
0000
0000
0000
0000
0000
0000
4000
2000
3000
3000
0000
0000
0000
ENDCHAR
STARTCHAR nakaguro
ENCODING 165
SWIDTH 505 0
DWIDTH 10 0
BBX 10 20 0 -3
BITMAP
0000
0000
0000
0000
0000
0000
0000
0000
1c00
1c00
1c00
0000
0000
0000
0000
0000
0000
0000
0000
0000
ENDCHAR
STARTCHAR KanaWO
ENCODING 166
SWIDTH 505 0
DWIDTH 10 0
BBX 10 20 0 -3
BITMAP
0000
0000
0100
7f80
2180
0180
0180
3f00
1300
0300
0300
0600
0600
0c00
0c00
1800
1000
2000
0000
0000
ENDCHAR
STARTCHAR KanaSmallA
ENCODING 167
SWIDTH 505 0
DWIDTH 10 0
BBX 10 20 0 -3
BITMAP
0000
0000
0000
0000
0000
0000
0100
cf80
7300
0200
1400
1800
1800
1800
1800
1000
1000
2000
0000
0000
ENDCHAR
STARTCHAR KanaSmallI
ENCODING 168
SWIDTH 505 0
DWIDTH 10 0
BBX 10 20 0 -3
BITMAP
0000
0000
0000
0000
0000
0000
0200
0300
0200
0600
0c00
1800
2c00
4c00
0c00
0c00
0c00
0c00
0000
0000
ENDCHAR
STARTCHAR KanaSmallU
ENCODING 169
SWIDTH 505 0
DWIDTH 10 0
BBX 10 20 0 -3
BITMAP
0000
0000
0000
0000
0000
0000
1800
0c00
4900
7f80
6300
6300
6300
0600
0600
0c00
0800
1000
0000
0000
ENDCHAR
STARTCHAR KanaSmallE
ENCODING 170
SWIDTH 505 0
DWIDTH 10 0
BBX 10 20 0 -3
BITMAP
0000
0000
0000
0000
0000
0000
0000
0200
3f00
0c00
0c00
0c00
0c00
0c00
0c00
7f80
2100
0000
0000
0000
ENDCHAR
STARTCHAR KanaSmallO
ENCODING 171
SWIDTH 505 0
DWIDTH 10 0
BBX 10 20 0 -3
BITMAP
0000
0000
0000
0000
0000
0000
0400
0600
0680
7fc0
2600
0e00
1e00
1600
3600
4600
1e00
0400
0000
0000
ENDCHAR
STARTCHAR KanaSmallYa
ENCODING 172
SWIDTH 505 0
DWIDTH 10 0
BBX 10 20 0 -3
BITMAP
0000
0000
0000
0000
0000
0000
0000
3000
3000
1180
1fc0
f880
5900
0900
0c00
0c00
0c00
0c00
0000
0000
ENDCHAR
STARTCHAR KanaSmallyu
ENCODING 173
SWIDTH 505 0
DWIDTH 10 0
BBX 10 20 0 -3
BITMAP
0000
0000
0000
0000
0000
0000
0000
0000
0200
3f00
1300
0300
0200
0600
0600
7fc0
2080
0000
0000
0000
ENDCHAR
STARTCHAR KanaSmallYO
ENCODING 174
SWIDTH 505 0
DWIDTH 10 0
BBX 10 20 0 -3
BITMAP
0000
0000
0000
0000
0000
0000
0000
0000
0200
7f80
2300
0300
7f00
2300
0300
7f00
2200
0000
0000
0000
ENDCHAR
STARTCHAR KanaSmallTU
ENCODING 175
SWIDTH 505 0
DWIDTH 10 0
BBX 10 20 0 -3
BITMAP
0000
0000
0000
0000
0000
0000
0000
0000
1200
9b80
db00
4b00
4300
0600
0600
0c00
0800
1000
0000
0000
ENDCHAR
STARTCHAR Prolonged
ENCODING 176
SWIDTH 505 0
DWIDTH 10 0
BBX 10 20 0 -3
BITMAP
0000
0000
0000
0000
0000
0000
0000
0000
6300
3f80
1c00
0000
0000
0000
0000
0000
0000
0000
0000
0000
ENDCHAR
STARTCHAR KanaA
ENCODING 177
SWIDTH 505 0
DWIDTH 10 0
BBX 10 20 0 -3
BITMAP
0000
0000
0000
0180
dfc0
7980
0100
1300
0a00
0c00
0c00
0c00
0c00
0800
1800
1000
1000
2000
0000
0000
ENDCHAR
STARTCHAR KanaI
ENCODING 178
SWIDTH 505 0
DWIDTH 10 0
BBX 10 20 0 -3
BITMAP
0000
0000
0200
0380
0700
0600
0c00
1800
2c00
cc00
0c00
0c00
0c00
0c00
0c00
0c00
0c00
0400
0000
0000
ENDCHAR
STARTCHAR KanaU
ENCODING 179
SWIDTH 505 0
DWIDTH 10 0
BBX 10 20 0 -3
BITMAP
0000
0000
0c00
0c00
0800
4980
ffc0
4180
4180
6180
4300
0300
0600
0600
0c00
0800
1000
2000
0000
0000
ENDCHAR
STARTCHAR KanaE
ENCODING 180
SWIDTH 505 0
DWIDTH 10 0
BBX 10 20 0 -3
BITMAP
0000
0000
0000
0000
0100
7f80
2c00
0c00
0c00
0c00
0c00
0c00
0c00
0c80
ffc0
4000
0000
0000
0000
0000
ENDCHAR
STARTCHAR KanaO
ENCODING 181
SWIDTH 505 0
DWIDTH 10 0
BBX 10 20 0 -3
BITMAP
0000
0000
0c00
0600
0600
0680
07c0
fe00
0e00
0e00
1e00
3600
2600
4600
8600
0600
1e00
0400
0000
0000
ENDCHAR
STARTCHAR KanaKA
ENCODING 182
SWIDTH 505 0
DWIDTH 10 0
BBX 10 20 0 -3
BITMAP
0000
0000
3000
1800
1800
1900
1f80
fb00
3300
3300
3300
3300
6300
6300
6600
4600
de00
8400
0000
0000
ENDCHAR
STARTCHAR KanaKI
ENCODING 183
SWIDTH 505 0
DWIDTH 10 0
BBX 10 20 0 -3
BITMAP
0000
0000
1800
1800
1800
0d00
0f80
fc00
4c00
0c00
0d80
0fc0
fe00
4600
0600
0600
0600
0600
0000
0000
ENDCHAR
STARTCHAR KanaKU
ENCODING 184
SWIDTH 505 0
DWIDTH 10 0
BBX 10 20 0 -3
BITMAP
0000
0000
2000
3000
3100
3f80
3300
6300
6300
4300
8300
0600
0600
0c00
0800
1800
3000
c000
0000
0000
ENDCHAR
STARTCHAR KanaKE
ENCODING 185
SWIDTH 505 0
DWIDTH 10 0
BBX 10 20 0 -3
BITMAP
0000
0000
c000
6000
6100
6f80
7c00
4c00
4c00
8c00
0c00
0800
0800
1800
1000
3000
2000
4000
0000
0000
ENDCHAR
STARTCHAR KanaKO
ENCODING 186
SWIDTH 505 0
DWIDTH 10 0
BBX 10 20 0 -3
BITMAP
0000
0000
0000
0000
0700
ff80
4300
0300
0300
0300
0300
0300
0300
0300
ff00
4200
0000
0000
0000
0000
ENDCHAR
STARTCHAR KanaSA
ENCODING 187
SWIDTH 505 0
DWIDTH 10 0
BBX 10 20 0 -3
BITMAP
0000
0000
6600
3300
3300
3300
3fc0
f300
3300
3300
3300
0200
0600
0600
0400
0c00
0800
1000
0000
0000
ENDCHAR
STARTCHAR KanaSI
ENCODING 188
SWIDTH 505 0
DWIDTH 10 0
BBX 10 20 0 -3
BITMAP
0000
0000
2000
1000
1880
1880
0080
4100
2100
3300
3200
0600
0400
0c00
9800
7800
3000
2000
0000
0000
ENDCHAR
STARTCHAR KanaSU
ENCODING 189
SWIDTH 505 0
DWIDTH 10 0
BBX 10 20 0 -3
BITMAP
0000
0000
0100
4f80
3980
1100
0300
0300
0600
0600
0c00
0a00
1b00
1300
3180
6180
4180
8100
0000
0000
ENDCHAR
STARTCHAR KanaSE
ENCODING 190
SWIDTH 505 0
DWIDTH 10 0
BBX 10 20 0 -3
BITMAP
0000
0000
0000
6000
3800
3000
3080
37c0
bd80
7100
3100
3200
3000
3000
3180
3f80
1e00
0000
0000
0000
ENDCHAR
STARTCHAR KanaSO
ENCODING 191
SWIDTH 505 0
DWIDTH 10 0
BBX 10 20 0 -3
BITMAP
0000
0000
0000
0100
c1c0
6180
3180
3180
3300
0300
0300
0600
0600
0400
0c00
0800
1000
2000
0000
0000
ENDCHAR
STARTCHAR KanaTA
ENCODING 192
SWIDTH 505 0
DWIDTH 10 0
BBX 10 20 0 -3
BITMAP
0000
0000
2000
3000
3100
3f80
3300
2300
6300
5b00
8b00
0600
0600
0c00
0800
1800
3000
c000
0000
0000
ENDCHAR
STARTCHAR KanaTI
ENCODING 193
SWIDTH 505 0
DWIDTH 10 0
BBX 10 20 0 -3
BITMAP
0000
0000
0400
0700
0c00
1c00
6c00
0d00
0f80
fc00
0c00
0c00
1800
1800
1000
3000
2000
4000
0000
0000
ENDCHAR
STARTCHAR KanaTU
ENCODING 194
SWIDTH 505 0
DWIDTH 10 0
BBX 10 20 0 -3
BITMAP
0000
0000
0000
1100
89c0
4d80
6d80
6980
4300
0300
0300
0600
0600
0400
0c00
0800
1000
2000
0000
0000
ENDCHAR
STARTCHAR KanaTE
ENCODING 195
SWIDTH 505 0
DWIDTH 10 0
BBX 10 20 0 -3
BITMAP
0000
0000
0000
0300
6f80
3800
0000
0180
cfc0
7c00
0c00
0c00
0c00
1800
1000
3000
2000
4000
0000
0000
ENDCHAR
STARTCHAR KanaTO
ENCODING 196
SWIDTH 505 0
DWIDTH 10 0
BBX 10 20 0 -3
BITMAP
0000
0000
6000
3000
3000
3000
3000
3000
3c00
3600
3300
3300
3200
3000
3000
3000
3000
2000
0000
0000
ENDCHAR
STARTCHAR KanaNA
ENCODING 197
SWIDTH 505 0
DWIDTH 10 0
BBX 10 20 0 -3
BITMAP
0000
0000
1800
0c00
0c00
0c00
0d00
cf80
7c00
0c00
0c00
0c00
1800
1800
1800
3000
2000
4000
0000
0000
ENDCHAR
STARTCHAR KanaNI
ENCODING 198
SWIDTH 505 0
DWIDTH 10 0
BBX 10 20 0 -3
BITMAP
0000
0000
0000
0000
0600
6f00
3800
0000
0000
0000
0000
0000
0000
1f00
7380
c000
0000
0000
0000
0000
ENDCHAR
STARTCHAR KanaNU
ENCODING 199
SWIDTH 505 0
DWIDTH 10 0
BBX 10 20 0 -3
BITMAP
0000
0000
0000
0100
6f80
3b00
0300
0300
2600
1600
0c00
0c00
1c00
1600
3200
2300
4300
8200
0000
0000
ENDCHAR
STARTCHAR KanaNE
ENCODING 200
SWIDTH 505 0
DWIDTH 10 0
BBX 10 20 0 -3
BITMAP
0000
0000
1800
0c00
0d00
6f80
3b00
0300
0600
0c00
1e00
3d00
6d80
8d80
0d00
0c00
0c00
0c00
0000
0000
ENDCHAR
STARTCHAR KanaNO
ENCODING 201
SWIDTH 505 0
DWIDTH 10 0
BBX 10 20 0 -3
BITMAP
0000
0000
0000
0300
0380
0300
0300
0200
0600
0600
0400
0c00
0800
1800
1000
3000
6000
8000
0000
0000
ENDCHAR
STARTCHAR KanaHA
ENCODING 202
SWIDTH 505 0
DWIDTH 10 0
BBX 10 20 0 -3
BITMAP
0000
0000
0000
2200
3100
3900
3100
3180
3080
2080
6080
60c0
40c0
40c0
40c0
8080
0000
0000
0000
0000
ENDCHAR
STARTCHAR KanaHI
ENCODING 203
SWIDTH 505 0
DWIDTH 10 0
BBX 10 20 0 -3
BITMAP
0000
0000
6000
2000
3000
3000
3100
3380
3700
3c00
3000
3000
3000
3000
3000
3980
1f80
0000
0000
0000
ENDCHAR
STARTCHAR KanaHU
ENCODING 204
SWIDTH 505 0
DWIDTH 10 0
BBX 10 20 0 -3
BITMAP
0000
0000
0000
0100
c780
7d80
2180
0300
0300
0300
0600
0600
0c00
0c00
1800
1000
2000
4000
0000
0000
ENDCHAR
STARTCHAR KanaHE
ENCODING 205
SWIDTH 505 0
DWIDTH 10 0
BBX 10 20 0 -3
BITMAP
0000
0000
0000
0000
0000
3000
3800
2800
2c00
6400
4600
c200
8300
0100
0180
0180
0000
0000
0000
0000
ENDCHAR
STARTCHAR KanaHO
ENCODING 206
SWIDTH 505 0
DWIDTH 10 0
BBX 10 20 0 -3
BITMAP
0000
0000
1800
0c00
0d80
cfc0
7c00
0c00
4d00
6c80
6c80
4cc0
4cc0
ccc0
8cc0
0c00
0c00
0000
0000
0000
ENDCHAR
STARTCHAR KanaMA
ENCODING 207
SWIDTH 505 0
DWIDTH 10 0
BBX 10 20 0 -3
BITMAP
0000
0000
0000
0100
0f80
f980
6300
0300
0600
0400
0400
6800
3000
1800
0c00
0400
0000
0000
0000
0000
ENDCHAR
STARTCHAR KanaMI
ENCODING 208
SWIDTH 505 0
DWIDTH 10 0
BBX 10 20 0 -3
BITMAP
0000
0000
1800
0600
0300
0100
0000
3000
0c00
0600
0200
0000
e000
3800
0c00
0600
0300
0100
0000
0000
ENDCHAR
STARTCHAR KanaMU
ENCODING 209
SWIDTH 505 0
DWIDTH 10 0
BBX 10 20 0 -3
BITMAP
0000
0000
1000
1800
1c00
1800
1800
1800
3000
3000
3200
3300
3100
2180
2780
7d80
e180
4100
0000
0000
ENDCHAR
STARTCHAR KanaME
ENCODING 210
SWIDTH 505 0
DWIDTH 10 0
BBX 10 20 0 -3
BITMAP
0000
0000
0200
0380
0300
0300
0300
3600
0e00
0600
0700
0d00
0980
1980
1180
3000
6000
c000
0000
0000
ENDCHAR
STARTCHAR KanaMO
ENCODING 211
SWIDTH 505 0
DWIDTH 10 0
BBX 10 20 0 -3
BITMAP
0000
0000
0200
1f00
7c00
1800
1800
1800
1b00
1f80
f800
5800
1800
1800
1800
1d80
0f80
0000
0000
0000
ENDCHAR
STARTCHAR KanaYA
ENCODING 212
SWIDTH 505 0
DWIDTH 10 0
BBX 10 20 0 -3
BITMAP
0000
0000
6000
3000
3080
33c0
1e80
f980
5900
1a00
1a00
1800
0c00
0c00
0c00
0c00
0c00
0c00
0000
0000
ENDCHAR
STARTCHAR KanaYU
ENCODING 213
SWIDTH 505 0
DWIDTH 10 0
BBX 10 20 0 -3
BITMAP
0000
0000
0000
0000
0600
7f00
3600
0600
0600
0600
0c00
0c00
0c00
0c00
ff80
6380
0000
0000
0000
0000
ENDCHAR
STARTCHAR KanaYO
ENCODING 214
SWIDTH 505 0
DWIDTH 10 0
BBX 10 20 0 -3
BITMAP
0000
0000
0000
0000
0700
ff80
6300
0300
0300
7f00
3300
0300
0300
0300
ff00
6600
0000
0000
0000
0000
ENDCHAR
STARTCHAR KanaRA
ENCODING 215
SWIDTH 505 0
DWIDTH 10 0
BBX 10 20 0 -3
BITMAP
0000
0000
0200
6f00
3800
0000
0100
cf80
7980
0300
0300
0600
0600
0c00
0c00
1800
3000
4000
0000
0000
ENDCHAR
STARTCHAR KanaRI
ENCODING 216
SWIDTH 505 0
DWIDTH 10 0
BBX 10 20 0 -3
BITMAP
0000
0000
0300
6180
3180
3180
3180
3180
3180
3180
3180
0300
0300
0200
0600
0400
0c00
1000
0000
0000
ENDCHAR
STARTCHAR KanaRU
ENCODING 217
SWIDTH 505 0
DWIDTH 10 0
BBX 10 20 0 -3
BITMAP
0000
0000
0400
4700
6600
7600
6600
6600
6600
6640
6640
6640
6680
6680
4780
4700
4600
8400
0000
0000
ENDCHAR
STARTCHAR KanaRE
ENCODING 218
SWIDTH 505 0
DWIDTH 10 0
BBX 10 20 0 -3
BITMAP
0000
0000
6000
3800
3000
3000
3000
3000
3080
3080
3180
3100
3300
3200
3e00
3c00
3800
1000
0000
0000
ENDCHAR
STARTCHAR KanaRO
ENCODING 219
SWIDTH 505 0
DWIDTH 10 0
BBX 10 20 0 -3
BITMAP
0000
0000
0000
0000
0700
ff80
7300
6300
6300
6300
6300
6300
6300
6300
7f00
6200
0000
0000
0000
0000
ENDCHAR
STARTCHAR KanaWA
ENCODING 220
SWIDTH 505 0
DWIDTH 10 0
BBX 10 20 0 -3
BITMAP
0000
0000
c100
6f80
7980
6180
6180
6300
6300
0300
0600
0600
0600
0c00
0c00
1800
1000
2000
0000
0000
ENDCHAR
STARTCHAR KanaN
ENCODING 221
SWIDTH 505 0
DWIDTH 10 0
BBX 10 20 0 -3
BITMAP
0000
0000
0000
8080
6080
2180
3100
3100
0300
0200
0600
0600
0c00
0c00
9800
7800
3000
2000
0000
0000
ENDCHAR
STARTCHAR dakuten
ENCODING 222
SWIDTH 505 0
DWIDTH 10 0
BBX 10 20 0 -3
BITMAP
0000
0000
1000
8c00
6600
3600
3000
0000
0000
0000
0000
0000
0000
0000
0000
0000
0000
0000
0000
0000
ENDCHAR
STARTCHAR handakuten
ENCODING 223
SWIDTH 505 0
DWIDTH 10 0
BBX 10 20 0 -3
BITMAP
0000
0000
3800
6c00
4400
6c00
3800
0000
0000
0000
0000
0000
0000
0000
0000
0000
0000
0000
0000
0000
ENDCHAR
ENDFONT
